<mxfile host="Electron" modified="2023-04-29T11:19:56.860Z" agent="Mozilla/5.0 (Windows NT 10.0; Win64; x64) AppleWebKit/537.36 (KHTML, like Gecko) draw.io/21.2.1 Chrome/112.0.5615.87 Electron/24.1.2 Safari/537.36" etag="WXA5kuFxuwaq1aHZq9h8" version="21.2.1" type="device">
  <diagram name="Страница 1" id="VoCZhmNvDZEU5dunKUhm">
    <mxGraphModel dx="1577" dy="1285" grid="1" gridSize="10" guides="1" tooltips="1" connect="1" arrows="1" fold="1" page="1" pageScale="1" pageWidth="827" pageHeight="1169" math="0" shadow="0">
      <root>
        <mxCell id="0" />
        <mxCell id="1" parent="0" />
        <mxCell id="Dk0L3y-KsjKSBFaneQlL-3" style="edgeStyle=orthogonalEdgeStyle;rounded=0;orthogonalLoop=1;jettySize=auto;html=1;exitX=0.5;exitY=1;exitDx=0;exitDy=0;entryX=0.5;entryY=0;entryDx=0;entryDy=0;" parent="1" source="Dk0L3y-KsjKSBFaneQlL-1" target="Dk0L3y-KsjKSBFaneQlL-2" edge="1">
          <mxGeometry relative="1" as="geometry" />
        </mxCell>
        <mxCell id="Dk0L3y-KsjKSBFaneQlL-1" value="&lt;font style=&quot;font-size: 18px;&quot;&gt;Start&lt;/font&gt;" style="rounded=1;whiteSpace=wrap;html=1;arcSize=49;" parent="1" vertex="1">
          <mxGeometry x="390" y="250" width="160" height="60" as="geometry" />
        </mxCell>
        <mxCell id="Dk0L3y-KsjKSBFaneQlL-5" style="edgeStyle=orthogonalEdgeStyle;rounded=0;orthogonalLoop=1;jettySize=auto;html=1;exitX=0.5;exitY=1;exitDx=0;exitDy=0;entryX=0.5;entryY=0;entryDx=0;entryDy=0;" parent="1" source="Dk0L3y-KsjKSBFaneQlL-2" target="Dk0L3y-KsjKSBFaneQlL-4" edge="1">
          <mxGeometry relative="1" as="geometry" />
        </mxCell>
        <mxCell id="Dk0L3y-KsjKSBFaneQlL-2" value="&lt;font style=&quot;font-size: 18px;&quot;&gt;string[ ] array = [???]&lt;br&gt;array.Length &amp;gt; 0&lt;br&gt;&lt;/font&gt;" style="shape=parallelogram;perimeter=parallelogramPerimeter;whiteSpace=wrap;html=1;fixedSize=1;" parent="1" vertex="1">
          <mxGeometry x="370" y="350" width="200" height="90" as="geometry" />
        </mxCell>
        <mxCell id="Dk0L3y-KsjKSBFaneQlL-8" style="edgeStyle=orthogonalEdgeStyle;rounded=0;orthogonalLoop=1;jettySize=auto;html=1;exitX=0;exitY=0.5;exitDx=0;exitDy=0;entryX=0.5;entryY=0;entryDx=0;entryDy=0;" parent="1" source="Dk0L3y-KsjKSBFaneQlL-4" target="Dk0L3y-KsjKSBFaneQlL-7" edge="1">
          <mxGeometry relative="1" as="geometry" />
        </mxCell>
        <mxCell id="Dk0L3y-KsjKSBFaneQlL-14" value="Yes" style="edgeLabel;html=1;align=center;verticalAlign=middle;resizable=0;points=[];" parent="Dk0L3y-KsjKSBFaneQlL-8" vertex="1" connectable="0">
          <mxGeometry x="0.19" y="-1" relative="1" as="geometry">
            <mxPoint x="1" y="-1" as="offset" />
          </mxGeometry>
        </mxCell>
        <mxCell id="Dk0L3y-KsjKSBFaneQlL-34" style="edgeStyle=orthogonalEdgeStyle;rounded=0;orthogonalLoop=1;jettySize=auto;html=1;exitX=1;exitY=0.5;exitDx=0;exitDy=0;" parent="1" source="Dk0L3y-KsjKSBFaneQlL-4" target="Dk0L3y-KsjKSBFaneQlL-32" edge="1">
          <mxGeometry relative="1" as="geometry" />
        </mxCell>
        <mxCell id="Dk0L3y-KsjKSBFaneQlL-35" value="No" style="edgeLabel;html=1;align=center;verticalAlign=middle;resizable=0;points=[];" parent="Dk0L3y-KsjKSBFaneQlL-34" vertex="1" connectable="0">
          <mxGeometry x="0.5535" y="-1" relative="1" as="geometry">
            <mxPoint x="40" y="-1" as="offset" />
          </mxGeometry>
        </mxCell>
        <mxCell id="Dk0L3y-KsjKSBFaneQlL-4" value="&lt;font style=&quot;font-size: 18px;&quot;&gt;array.Length = 2&lt;/font&gt;" style="rhombus;whiteSpace=wrap;html=1;" parent="1" vertex="1">
          <mxGeometry x="385.5" y="480" width="170" height="90" as="geometry" />
        </mxCell>
        <mxCell id="Dk0L3y-KsjKSBFaneQlL-11" style="edgeStyle=orthogonalEdgeStyle;rounded=0;orthogonalLoop=1;jettySize=auto;html=1;exitX=0.5;exitY=1;exitDx=0;exitDy=0;entryX=0.5;entryY=0;entryDx=0;entryDy=0;" parent="1" source="Dk0L3y-KsjKSBFaneQlL-7" target="Dk0L3y-KsjKSBFaneQlL-9" edge="1">
          <mxGeometry relative="1" as="geometry" />
        </mxCell>
        <mxCell id="Dk0L3y-KsjKSBFaneQlL-7" value="&lt;font style=&quot;font-size: 18px;&quot;&gt;a = random num (0, 4)&lt;/font&gt;" style="rounded=0;whiteSpace=wrap;html=1;" parent="1" vertex="1">
          <mxGeometry x="190" y="590" width="190" height="60" as="geometry" />
        </mxCell>
        <mxCell id="Dk0L3y-KsjKSBFaneQlL-12" style="edgeStyle=orthogonalEdgeStyle;rounded=0;orthogonalLoop=1;jettySize=auto;html=1;exitX=0;exitY=0.5;exitDx=0;exitDy=0;" parent="1" source="Dk0L3y-KsjKSBFaneQlL-9" target="Dk0L3y-KsjKSBFaneQlL-10" edge="1">
          <mxGeometry relative="1" as="geometry" />
        </mxCell>
        <mxCell id="Dk0L3y-KsjKSBFaneQlL-13" value="Yes" style="edgeLabel;html=1;align=center;verticalAlign=middle;resizable=0;points=[];" parent="Dk0L3y-KsjKSBFaneQlL-12" vertex="1" connectable="0">
          <mxGeometry x="-0.5798" y="1" relative="1" as="geometry">
            <mxPoint x="-50" y="-1" as="offset" />
          </mxGeometry>
        </mxCell>
        <mxCell id="Dk0L3y-KsjKSBFaneQlL-16" style="edgeStyle=orthogonalEdgeStyle;rounded=0;orthogonalLoop=1;jettySize=auto;html=1;exitX=1;exitY=0.5;exitDx=0;exitDy=0;entryX=0.5;entryY=0;entryDx=0;entryDy=0;" parent="1" source="Dk0L3y-KsjKSBFaneQlL-9" edge="1">
          <mxGeometry relative="1" as="geometry">
            <mxPoint x="430" y="820" as="targetPoint" />
          </mxGeometry>
        </mxCell>
        <mxCell id="Dk0L3y-KsjKSBFaneQlL-17" value="No" style="edgeLabel;html=1;align=center;verticalAlign=middle;resizable=0;points=[];" parent="Dk0L3y-KsjKSBFaneQlL-16" vertex="1" connectable="0">
          <mxGeometry x="-0.1133" y="-1" relative="1" as="geometry">
            <mxPoint x="1" as="offset" />
          </mxGeometry>
        </mxCell>
        <mxCell id="Dk0L3y-KsjKSBFaneQlL-9" value="&lt;font style=&quot;font-size: 18px;&quot;&gt;a = 0&lt;/font&gt;" style="rhombus;whiteSpace=wrap;html=1;" parent="1" vertex="1">
          <mxGeometry x="215" y="685" width="150" height="100" as="geometry" />
        </mxCell>
        <mxCell id="Uyoz-FqNNkSsKf5wZSJ--50" style="edgeStyle=orthogonalEdgeStyle;rounded=0;orthogonalLoop=1;jettySize=auto;html=1;exitX=0.5;exitY=1;exitDx=0;exitDy=0;entryX=0;entryY=0.75;entryDx=0;entryDy=0;" edge="1" parent="1" source="Dk0L3y-KsjKSBFaneQlL-10" target="Uyoz-FqNNkSsKf5wZSJ--48">
          <mxGeometry relative="1" as="geometry" />
        </mxCell>
        <mxCell id="Dk0L3y-KsjKSBFaneQlL-10" value="&lt;font style=&quot;font-size: 18px;&quot;&gt;result_array = [ ]&lt;/font&gt;" style="rounded=0;whiteSpace=wrap;html=1;" parent="1" vertex="1">
          <mxGeometry x="50" y="810" width="150" height="70" as="geometry" />
        </mxCell>
        <mxCell id="Dk0L3y-KsjKSBFaneQlL-24" style="edgeStyle=orthogonalEdgeStyle;rounded=0;orthogonalLoop=1;jettySize=auto;html=1;exitX=0.5;exitY=1;exitDx=0;exitDy=0;entryX=0.5;entryY=0;entryDx=0;entryDy=0;" parent="1" source="Dk0L3y-KsjKSBFaneQlL-22" target="Dk0L3y-KsjKSBFaneQlL-23" edge="1">
          <mxGeometry relative="1" as="geometry" />
        </mxCell>
        <mxCell id="Dk0L3y-KsjKSBFaneQlL-22" value="&lt;font style=&quot;font-size: 18px;&quot;&gt;i = 0&lt;/font&gt;" style="rounded=0;whiteSpace=wrap;html=1;" parent="1" vertex="1">
          <mxGeometry x="370" y="820" width="120" height="60" as="geometry" />
        </mxCell>
        <mxCell id="Dk0L3y-KsjKSBFaneQlL-25" value="Yes" style="edgeStyle=orthogonalEdgeStyle;rounded=0;orthogonalLoop=1;jettySize=auto;html=1;exitX=0.5;exitY=1;exitDx=0;exitDy=0;" parent="1" source="Dk0L3y-KsjKSBFaneQlL-23" edge="1">
          <mxGeometry relative="1" as="geometry">
            <mxPoint x="430.33333333333337" y="1060" as="targetPoint" />
          </mxGeometry>
        </mxCell>
        <mxCell id="Dk0L3y-KsjKSBFaneQlL-28" style="edgeStyle=orthogonalEdgeStyle;rounded=0;orthogonalLoop=1;jettySize=auto;html=1;exitX=1;exitY=0.5;exitDx=0;exitDy=0;" parent="1" source="Dk0L3y-KsjKSBFaneQlL-23" edge="1">
          <mxGeometry relative="1" as="geometry">
            <mxPoint x="602" y="1040" as="targetPoint" />
          </mxGeometry>
        </mxCell>
        <mxCell id="Uyoz-FqNNkSsKf5wZSJ--1" value="No" style="edgeLabel;html=1;align=center;verticalAlign=middle;resizable=0;points=[];" vertex="1" connectable="0" parent="Dk0L3y-KsjKSBFaneQlL-28">
          <mxGeometry x="-0.0704" relative="1" as="geometry">
            <mxPoint as="offset" />
          </mxGeometry>
        </mxCell>
        <mxCell id="Dk0L3y-KsjKSBFaneQlL-23" value="&lt;font style=&quot;font-size: 18px;&quot;&gt;i &amp;lt; random num(0, 2)&amp;nbsp;&lt;/font&gt;" style="rhombus;whiteSpace=wrap;html=1;" parent="1" vertex="1">
          <mxGeometry x="320" y="910" width="220" height="100" as="geometry" />
        </mxCell>
        <mxCell id="Dk0L3y-KsjKSBFaneQlL-27" style="edgeStyle=orthogonalEdgeStyle;rounded=0;orthogonalLoop=1;jettySize=auto;html=1;exitX=0;exitY=0.5;exitDx=0;exitDy=0;entryX=0;entryY=0.5;entryDx=0;entryDy=0;" parent="1" source="Dk0L3y-KsjKSBFaneQlL-26" target="Dk0L3y-KsjKSBFaneQlL-23" edge="1">
          <mxGeometry relative="1" as="geometry">
            <Array as="points">
              <mxPoint x="280" y="1080" />
              <mxPoint x="280" y="960" />
            </Array>
          </mxGeometry>
        </mxCell>
        <mxCell id="Dk0L3y-KsjKSBFaneQlL-26" value="&lt;font style=&quot;font-size: 18px;&quot;&gt;i++&lt;/font&gt;" style="rounded=0;whiteSpace=wrap;html=1;" parent="1" vertex="1">
          <mxGeometry x="380" y="1060" width="100" height="40" as="geometry" />
        </mxCell>
        <mxCell id="Uyoz-FqNNkSsKf5wZSJ--51" style="edgeStyle=orthogonalEdgeStyle;rounded=0;orthogonalLoop=1;jettySize=auto;html=1;exitX=0.5;exitY=1;exitDx=0;exitDy=0;entryX=0;entryY=0.5;entryDx=0;entryDy=0;" edge="1" parent="1" source="Dk0L3y-KsjKSBFaneQlL-29" target="Uyoz-FqNNkSsKf5wZSJ--48">
          <mxGeometry relative="1" as="geometry" />
        </mxCell>
        <mxCell id="Dk0L3y-KsjKSBFaneQlL-29" value="&lt;font style=&quot;font-size: 18px;&quot;&gt;result_array = [???]&lt;/font&gt;" style="rounded=0;whiteSpace=wrap;html=1;" parent="1" vertex="1">
          <mxGeometry x="520" y="1040" width="180" height="70" as="geometry" />
        </mxCell>
        <mxCell id="Uyoz-FqNNkSsKf5wZSJ--5" style="edgeStyle=orthogonalEdgeStyle;rounded=0;orthogonalLoop=1;jettySize=auto;html=1;exitX=0;exitY=0.5;exitDx=0;exitDy=0;entryX=0.454;entryY=0.033;entryDx=0;entryDy=0;entryPerimeter=0;" edge="1" parent="1" source="Dk0L3y-KsjKSBFaneQlL-32" target="Uyoz-FqNNkSsKf5wZSJ--2">
          <mxGeometry relative="1" as="geometry" />
        </mxCell>
        <mxCell id="Uyoz-FqNNkSsKf5wZSJ--8" value="Yes" style="edgeLabel;html=1;align=center;verticalAlign=middle;resizable=0;points=[];" vertex="1" connectable="0" parent="Uyoz-FqNNkSsKf5wZSJ--5">
          <mxGeometry x="-0.3672" y="-3" relative="1" as="geometry">
            <mxPoint x="-7" y="3" as="offset" />
          </mxGeometry>
        </mxCell>
        <mxCell id="Uyoz-FqNNkSsKf5wZSJ--26" style="edgeStyle=orthogonalEdgeStyle;rounded=0;orthogonalLoop=1;jettySize=auto;html=1;exitX=1;exitY=0.5;exitDx=0;exitDy=0;entryX=0.5;entryY=0;entryDx=0;entryDy=0;" edge="1" parent="1" source="Dk0L3y-KsjKSBFaneQlL-32" target="Uyoz-FqNNkSsKf5wZSJ--25">
          <mxGeometry relative="1" as="geometry" />
        </mxCell>
        <mxCell id="Uyoz-FqNNkSsKf5wZSJ--29" value="No" style="edgeLabel;html=1;align=center;verticalAlign=middle;resizable=0;points=[];" vertex="1" connectable="0" parent="Uyoz-FqNNkSsKf5wZSJ--26">
          <mxGeometry x="0.6348" y="-3" relative="1" as="geometry">
            <mxPoint x="35" y="-3" as="offset" />
          </mxGeometry>
        </mxCell>
        <mxCell id="Dk0L3y-KsjKSBFaneQlL-32" value="&lt;font style=&quot;font-size: 18px;&quot;&gt;array.Length = 1&lt;/font&gt;" style="rhombus;whiteSpace=wrap;html=1;" parent="1" vertex="1">
          <mxGeometry x="880" y="590" width="160" height="100" as="geometry" />
        </mxCell>
        <mxCell id="Uyoz-FqNNkSsKf5wZSJ--6" style="edgeStyle=orthogonalEdgeStyle;rounded=0;orthogonalLoop=1;jettySize=auto;html=1;exitX=0.5;exitY=1;exitDx=0;exitDy=0;entryX=0.5;entryY=0;entryDx=0;entryDy=0;" edge="1" parent="1" source="Uyoz-FqNNkSsKf5wZSJ--2" target="Uyoz-FqNNkSsKf5wZSJ--3">
          <mxGeometry relative="1" as="geometry" />
        </mxCell>
        <mxCell id="Uyoz-FqNNkSsKf5wZSJ--2" value="&lt;font style=&quot;font-size: 18px;&quot;&gt;b = random num(0, 4)&lt;/font&gt;" style="rounded=0;whiteSpace=wrap;html=1;" vertex="1" parent="1">
          <mxGeometry x="760" y="705" width="180" height="60" as="geometry" />
        </mxCell>
        <mxCell id="Uyoz-FqNNkSsKf5wZSJ--7" style="edgeStyle=orthogonalEdgeStyle;rounded=0;orthogonalLoop=1;jettySize=auto;html=1;exitX=0;exitY=0.5;exitDx=0;exitDy=0;" edge="1" parent="1" source="Uyoz-FqNNkSsKf5wZSJ--3" target="Uyoz-FqNNkSsKf5wZSJ--4">
          <mxGeometry relative="1" as="geometry" />
        </mxCell>
        <mxCell id="Uyoz-FqNNkSsKf5wZSJ--9" value="Yes" style="edgeLabel;html=1;align=center;verticalAlign=middle;resizable=0;points=[];" vertex="1" connectable="0" parent="Uyoz-FqNNkSsKf5wZSJ--7">
          <mxGeometry x="-0.216" relative="1" as="geometry">
            <mxPoint y="-11" as="offset" />
          </mxGeometry>
        </mxCell>
        <mxCell id="Uyoz-FqNNkSsKf5wZSJ--11" style="edgeStyle=orthogonalEdgeStyle;rounded=0;orthogonalLoop=1;jettySize=auto;html=1;exitX=1;exitY=0.5;exitDx=0;exitDy=0;entryX=0.5;entryY=0;entryDx=0;entryDy=0;" edge="1" parent="1" source="Uyoz-FqNNkSsKf5wZSJ--3" target="Uyoz-FqNNkSsKf5wZSJ--10">
          <mxGeometry relative="1" as="geometry" />
        </mxCell>
        <mxCell id="Uyoz-FqNNkSsKf5wZSJ--12" value="No" style="edgeLabel;html=1;align=center;verticalAlign=middle;resizable=0;points=[];" vertex="1" connectable="0" parent="Uyoz-FqNNkSsKf5wZSJ--11">
          <mxGeometry x="0.071" y="3" relative="1" as="geometry">
            <mxPoint as="offset" />
          </mxGeometry>
        </mxCell>
        <mxCell id="Uyoz-FqNNkSsKf5wZSJ--3" value="&lt;font style=&quot;font-size: 18px;&quot;&gt;b = 0&lt;/font&gt;" style="rhombus;whiteSpace=wrap;html=1;" vertex="1" parent="1">
          <mxGeometry x="785" y="805" width="130" height="80" as="geometry" />
        </mxCell>
        <mxCell id="Uyoz-FqNNkSsKf5wZSJ--54" style="edgeStyle=orthogonalEdgeStyle;rounded=0;orthogonalLoop=1;jettySize=auto;html=1;exitX=0.75;exitY=1;exitDx=0;exitDy=0;entryX=0.174;entryY=-0.003;entryDx=0;entryDy=0;entryPerimeter=0;" edge="1" parent="1" source="Uyoz-FqNNkSsKf5wZSJ--4" target="Uyoz-FqNNkSsKf5wZSJ--48">
          <mxGeometry relative="1" as="geometry">
            <Array as="points">
              <mxPoint x="780" y="980" />
            </Array>
          </mxGeometry>
        </mxCell>
        <mxCell id="Uyoz-FqNNkSsKf5wZSJ--4" value="&lt;font style=&quot;font-size: 18px;&quot;&gt;result_array = [ ]&lt;/font&gt;" style="rounded=0;whiteSpace=wrap;html=1;" vertex="1" parent="1">
          <mxGeometry x="680" y="920" width="150" height="60" as="geometry" />
        </mxCell>
        <mxCell id="Uyoz-FqNNkSsKf5wZSJ--14" style="edgeStyle=orthogonalEdgeStyle;rounded=0;orthogonalLoop=1;jettySize=auto;html=1;exitX=0.5;exitY=1;exitDx=0;exitDy=0;" edge="1" parent="1" source="Uyoz-FqNNkSsKf5wZSJ--10" target="Uyoz-FqNNkSsKf5wZSJ--13">
          <mxGeometry relative="1" as="geometry" />
        </mxCell>
        <mxCell id="Uyoz-FqNNkSsKf5wZSJ--10" value="&lt;font style=&quot;font-size: 18px;&quot;&gt;i = 0&lt;/font&gt;" style="rounded=0;whiteSpace=wrap;html=1;" vertex="1" parent="1">
          <mxGeometry x="940" y="920" width="120" height="60" as="geometry" />
        </mxCell>
        <mxCell id="Uyoz-FqNNkSsKf5wZSJ--16" value="Yes" style="edgeStyle=orthogonalEdgeStyle;rounded=0;orthogonalLoop=1;jettySize=auto;html=1;exitX=0.5;exitY=1;exitDx=0;exitDy=0;" edge="1" parent="1" source="Uyoz-FqNNkSsKf5wZSJ--13" target="Uyoz-FqNNkSsKf5wZSJ--15">
          <mxGeometry relative="1" as="geometry">
            <Array as="points">
              <mxPoint x="1000" y="1180" />
              <mxPoint x="1000" y="1180" />
            </Array>
          </mxGeometry>
        </mxCell>
        <mxCell id="Uyoz-FqNNkSsKf5wZSJ--19" style="edgeStyle=orthogonalEdgeStyle;rounded=0;orthogonalLoop=1;jettySize=auto;html=1;exitX=1;exitY=0.5;exitDx=0;exitDy=0;" edge="1" parent="1" source="Uyoz-FqNNkSsKf5wZSJ--13" target="Uyoz-FqNNkSsKf5wZSJ--18">
          <mxGeometry relative="1" as="geometry" />
        </mxCell>
        <mxCell id="Uyoz-FqNNkSsKf5wZSJ--20" value="No" style="edgeLabel;html=1;align=center;verticalAlign=middle;resizable=0;points=[];" vertex="1" connectable="0" parent="Uyoz-FqNNkSsKf5wZSJ--19">
          <mxGeometry x="0.0613" relative="1" as="geometry">
            <mxPoint x="11" as="offset" />
          </mxGeometry>
        </mxCell>
        <mxCell id="Uyoz-FqNNkSsKf5wZSJ--13" value="&lt;font style=&quot;font-size: 18px;&quot;&gt;i &amp;lt; random num(0, 2)&lt;/font&gt;" style="rhombus;whiteSpace=wrap;html=1;" vertex="1" parent="1">
          <mxGeometry x="898.75" y="1015" width="202.5" height="130" as="geometry" />
        </mxCell>
        <mxCell id="Uyoz-FqNNkSsKf5wZSJ--17" style="edgeStyle=orthogonalEdgeStyle;rounded=0;orthogonalLoop=1;jettySize=auto;html=1;exitX=0;exitY=0.5;exitDx=0;exitDy=0;entryX=0;entryY=0.5;entryDx=0;entryDy=0;" edge="1" parent="1" source="Uyoz-FqNNkSsKf5wZSJ--15" target="Uyoz-FqNNkSsKf5wZSJ--13">
          <mxGeometry relative="1" as="geometry">
            <Array as="points">
              <mxPoint x="960" y="1240" />
              <mxPoint x="870" y="1240" />
              <mxPoint x="870" y="1080" />
            </Array>
          </mxGeometry>
        </mxCell>
        <mxCell id="Uyoz-FqNNkSsKf5wZSJ--15" value="&lt;font style=&quot;font-size: 18px;&quot;&gt;i++&lt;/font&gt;" style="rounded=0;whiteSpace=wrap;html=1;" vertex="1" parent="1">
          <mxGeometry x="960" y="1220" width="100" height="50" as="geometry" />
        </mxCell>
        <mxCell id="Uyoz-FqNNkSsKf5wZSJ--63" style="edgeStyle=orthogonalEdgeStyle;rounded=0;orthogonalLoop=1;jettySize=auto;html=1;exitX=0.5;exitY=1;exitDx=0;exitDy=0;entryX=0.309;entryY=-0.019;entryDx=0;entryDy=0;entryPerimeter=0;" edge="1" parent="1" source="Uyoz-FqNNkSsKf5wZSJ--18" target="Uyoz-FqNNkSsKf5wZSJ--48">
          <mxGeometry relative="1" as="geometry" />
        </mxCell>
        <mxCell id="Uyoz-FqNNkSsKf5wZSJ--18" value="&lt;font style=&quot;font-size: 18px;&quot;&gt;result_array =[???]&lt;/font&gt;" style="rounded=0;whiteSpace=wrap;html=1;" vertex="1" parent="1">
          <mxGeometry x="1130" y="1160" width="170" height="60" as="geometry" />
        </mxCell>
        <mxCell id="Uyoz-FqNNkSsKf5wZSJ--28" style="edgeStyle=orthogonalEdgeStyle;rounded=0;orthogonalLoop=1;jettySize=auto;html=1;exitX=0.5;exitY=1;exitDx=0;exitDy=0;entryX=0.5;entryY=0;entryDx=0;entryDy=0;" edge="1" parent="1" source="Uyoz-FqNNkSsKf5wZSJ--25" target="Uyoz-FqNNkSsKf5wZSJ--27">
          <mxGeometry relative="1" as="geometry" />
        </mxCell>
        <mxCell id="Uyoz-FqNNkSsKf5wZSJ--25" value="&lt;font style=&quot;font-size: 18px;&quot;&gt;array.Length &amp;gt; 2&lt;/font&gt;" style="rounded=0;whiteSpace=wrap;html=1;" vertex="1" parent="1">
          <mxGeometry x="1440" y="705" width="160" height="60" as="geometry" />
        </mxCell>
        <mxCell id="Uyoz-FqNNkSsKf5wZSJ--33" style="edgeStyle=orthogonalEdgeStyle;rounded=0;orthogonalLoop=1;jettySize=auto;html=1;exitX=0.5;exitY=1;exitDx=0;exitDy=0;entryX=0.5;entryY=0;entryDx=0;entryDy=0;" edge="1" parent="1" source="Uyoz-FqNNkSsKf5wZSJ--27" target="Uyoz-FqNNkSsKf5wZSJ--32">
          <mxGeometry relative="1" as="geometry" />
        </mxCell>
        <mxCell id="Uyoz-FqNNkSsKf5wZSJ--27" value="&lt;font style=&quot;font-size: 18px;&quot;&gt;c = random num(0, 4)&lt;/font&gt;" style="rounded=0;whiteSpace=wrap;html=1;" vertex="1" parent="1">
          <mxGeometry x="1420" y="815" width="200" height="60" as="geometry" />
        </mxCell>
        <mxCell id="Uyoz-FqNNkSsKf5wZSJ--35" style="edgeStyle=orthogonalEdgeStyle;rounded=0;orthogonalLoop=1;jettySize=auto;html=1;exitX=0;exitY=0.5;exitDx=0;exitDy=0;entryX=0.5;entryY=0;entryDx=0;entryDy=0;" edge="1" parent="1" source="Uyoz-FqNNkSsKf5wZSJ--32" target="Uyoz-FqNNkSsKf5wZSJ--34">
          <mxGeometry relative="1" as="geometry" />
        </mxCell>
        <mxCell id="Uyoz-FqNNkSsKf5wZSJ--36" value="Yes" style="edgeLabel;html=1;align=center;verticalAlign=middle;resizable=0;points=[];" vertex="1" connectable="0" parent="Uyoz-FqNNkSsKf5wZSJ--35">
          <mxGeometry x="-0.1304" relative="1" as="geometry">
            <mxPoint y="-8" as="offset" />
          </mxGeometry>
        </mxCell>
        <mxCell id="Uyoz-FqNNkSsKf5wZSJ--38" style="edgeStyle=orthogonalEdgeStyle;rounded=0;orthogonalLoop=1;jettySize=auto;html=1;exitX=1;exitY=0.5;exitDx=0;exitDy=0;entryX=0.5;entryY=0;entryDx=0;entryDy=0;" edge="1" parent="1" source="Uyoz-FqNNkSsKf5wZSJ--32" target="Uyoz-FqNNkSsKf5wZSJ--37">
          <mxGeometry relative="1" as="geometry" />
        </mxCell>
        <mxCell id="Uyoz-FqNNkSsKf5wZSJ--39" value="No" style="edgeLabel;html=1;align=center;verticalAlign=middle;resizable=0;points=[];" vertex="1" connectable="0" parent="Uyoz-FqNNkSsKf5wZSJ--38">
          <mxGeometry x="-0.0783" y="2" relative="1" as="geometry">
            <mxPoint as="offset" />
          </mxGeometry>
        </mxCell>
        <mxCell id="Uyoz-FqNNkSsKf5wZSJ--32" value="&lt;font style=&quot;font-size: 18px;&quot;&gt;c = 0&lt;/font&gt;" style="rhombus;whiteSpace=wrap;html=1;" vertex="1" parent="1">
          <mxGeometry x="1445" y="910" width="150" height="80" as="geometry" />
        </mxCell>
        <mxCell id="Uyoz-FqNNkSsKf5wZSJ--60" style="edgeStyle=orthogonalEdgeStyle;rounded=0;orthogonalLoop=1;jettySize=auto;html=1;exitX=0.5;exitY=1;exitDx=0;exitDy=0;entryX=0.75;entryY=0;entryDx=0;entryDy=0;" edge="1" parent="1" source="Uyoz-FqNNkSsKf5wZSJ--34" target="Uyoz-FqNNkSsKf5wZSJ--48">
          <mxGeometry relative="1" as="geometry">
            <Array as="points">
              <mxPoint x="1410" y="1360" />
              <mxPoint x="913" y="1360" />
            </Array>
          </mxGeometry>
        </mxCell>
        <mxCell id="Uyoz-FqNNkSsKf5wZSJ--34" value="&lt;font style=&quot;font-size: 18px;&quot;&gt;result_array = [ ]&lt;/font&gt;" style="rounded=0;whiteSpace=wrap;html=1;" vertex="1" parent="1">
          <mxGeometry x="1340" y="1020" width="140" height="60" as="geometry" />
        </mxCell>
        <mxCell id="Uyoz-FqNNkSsKf5wZSJ--41" style="edgeStyle=orthogonalEdgeStyle;rounded=0;orthogonalLoop=1;jettySize=auto;html=1;exitX=0.5;exitY=1;exitDx=0;exitDy=0;" edge="1" parent="1" source="Uyoz-FqNNkSsKf5wZSJ--37" target="Uyoz-FqNNkSsKf5wZSJ--40">
          <mxGeometry relative="1" as="geometry" />
        </mxCell>
        <mxCell id="Uyoz-FqNNkSsKf5wZSJ--37" value="&lt;font style=&quot;font-size: 18px;&quot;&gt;i = 0&lt;/font&gt;" style="rounded=0;whiteSpace=wrap;html=1;" vertex="1" parent="1">
          <mxGeometry x="1590" y="1010" width="120" height="60" as="geometry" />
        </mxCell>
        <mxCell id="Uyoz-FqNNkSsKf5wZSJ--43" value="Yes" style="edgeStyle=orthogonalEdgeStyle;rounded=0;orthogonalLoop=1;jettySize=auto;html=1;exitX=0.5;exitY=1;exitDx=0;exitDy=0;entryX=0.5;entryY=0;entryDx=0;entryDy=0;" edge="1" parent="1" source="Uyoz-FqNNkSsKf5wZSJ--40" target="Uyoz-FqNNkSsKf5wZSJ--42">
          <mxGeometry relative="1" as="geometry" />
        </mxCell>
        <mxCell id="Uyoz-FqNNkSsKf5wZSJ--46" style="edgeStyle=orthogonalEdgeStyle;rounded=0;orthogonalLoop=1;jettySize=auto;html=1;exitX=1;exitY=0.5;exitDx=0;exitDy=0;entryX=0.5;entryY=0;entryDx=0;entryDy=0;" edge="1" parent="1" source="Uyoz-FqNNkSsKf5wZSJ--40" target="Uyoz-FqNNkSsKf5wZSJ--45">
          <mxGeometry relative="1" as="geometry" />
        </mxCell>
        <mxCell id="Uyoz-FqNNkSsKf5wZSJ--47" value="No" style="edgeLabel;html=1;align=center;verticalAlign=middle;resizable=0;points=[];" vertex="1" connectable="0" parent="Uyoz-FqNNkSsKf5wZSJ--46">
          <mxGeometry x="0.0024" y="-3" relative="1" as="geometry">
            <mxPoint as="offset" />
          </mxGeometry>
        </mxCell>
        <mxCell id="Uyoz-FqNNkSsKf5wZSJ--40" value="&lt;font style=&quot;font-size: 18px;&quot;&gt;i &amp;lt; random num(0, 2)&lt;/font&gt;" style="rhombus;whiteSpace=wrap;html=1;" vertex="1" parent="1">
          <mxGeometry x="1540" y="1110" width="220" height="100" as="geometry" />
        </mxCell>
        <mxCell id="Uyoz-FqNNkSsKf5wZSJ--44" style="edgeStyle=orthogonalEdgeStyle;rounded=0;orthogonalLoop=1;jettySize=auto;html=1;exitX=0;exitY=0.5;exitDx=0;exitDy=0;entryX=0;entryY=0.5;entryDx=0;entryDy=0;" edge="1" parent="1" source="Uyoz-FqNNkSsKf5wZSJ--42" target="Uyoz-FqNNkSsKf5wZSJ--40">
          <mxGeometry relative="1" as="geometry">
            <Array as="points">
              <mxPoint x="1520" y="1290" />
              <mxPoint x="1520" y="1160" />
            </Array>
          </mxGeometry>
        </mxCell>
        <mxCell id="Uyoz-FqNNkSsKf5wZSJ--42" value="&lt;font style=&quot;font-size: 18px;&quot;&gt;i++&lt;/font&gt;" style="rounded=0;whiteSpace=wrap;html=1;" vertex="1" parent="1">
          <mxGeometry x="1590" y="1260" width="120" height="60" as="geometry" />
        </mxCell>
        <mxCell id="Uyoz-FqNNkSsKf5wZSJ--61" style="edgeStyle=orthogonalEdgeStyle;rounded=0;orthogonalLoop=1;jettySize=auto;html=1;exitX=0.5;exitY=1;exitDx=0;exitDy=0;entryX=0.911;entryY=-0.001;entryDx=0;entryDy=0;entryPerimeter=0;" edge="1" parent="1" source="Uyoz-FqNNkSsKf5wZSJ--45" target="Uyoz-FqNNkSsKf5wZSJ--48">
          <mxGeometry relative="1" as="geometry">
            <Array as="points">
              <mxPoint x="1855" y="1400" />
              <mxPoint x="949" y="1400" />
            </Array>
          </mxGeometry>
        </mxCell>
        <mxCell id="Uyoz-FqNNkSsKf5wZSJ--45" value="&lt;font style=&quot;font-size: 18px;&quot;&gt;result_array = [???]&lt;/font&gt;" style="rounded=0;whiteSpace=wrap;html=1;" vertex="1" parent="1">
          <mxGeometry x="1770" y="1260" width="170" height="60" as="geometry" />
        </mxCell>
        <mxCell id="Uyoz-FqNNkSsKf5wZSJ--62" style="edgeStyle=orthogonalEdgeStyle;rounded=0;orthogonalLoop=1;jettySize=auto;html=1;exitX=1;exitY=0.5;exitDx=0;exitDy=0;entryX=0.5;entryY=0;entryDx=0;entryDy=0;" edge="1" parent="1" source="Uyoz-FqNNkSsKf5wZSJ--48" target="Uyoz-FqNNkSsKf5wZSJ--58">
          <mxGeometry relative="1" as="geometry" />
        </mxCell>
        <mxCell id="Uyoz-FqNNkSsKf5wZSJ--48" value="&lt;font style=&quot;font-size: 24px;&quot;&gt;print(result_array)&lt;/font&gt;" style="shape=document;whiteSpace=wrap;html=1;boundedLbl=1;" vertex="1" parent="1">
          <mxGeometry x="740" y="1430" width="230" height="110" as="geometry" />
        </mxCell>
        <mxCell id="Uyoz-FqNNkSsKf5wZSJ--58" value="&lt;font style=&quot;font-size: 24px;&quot;&gt;Finish&lt;/font&gt;" style="rounded=1;whiteSpace=wrap;html=1;arcSize=50;" vertex="1" parent="1">
          <mxGeometry x="1040" y="1550" width="250" height="80" as="geometry" />
        </mxCell>
        <mxCell id="Uyoz-FqNNkSsKf5wZSJ--64" value="&lt;blockquote style=&quot;margin: 0 0 0 40px; border: none; padding: 0px;&quot;&gt;&lt;/blockquote&gt;&lt;span style=&quot;font-size: 18px;&quot;&gt;&amp;nbsp;&lt;/span&gt;" style="text;html=1;align=center;verticalAlign=middle;resizable=0;points=[];autosize=1;strokeColor=none;fillColor=none;" vertex="1" parent="1">
          <mxGeometry x="750" y="105" width="60" height="40" as="geometry" />
        </mxCell>
        <mxCell id="Uyoz-FqNNkSsKf5wZSJ--70" value="&lt;font style=&quot;border-color: var(--border-color); font-size: 18px;&quot;&gt;Блок-схема внутренней работы функции по созданию&lt;br style=&quot;border-color: var(--border-color);&quot;&gt;&lt;/font&gt;&lt;blockquote style=&quot;border: none; margin: 0px 0px 0px 40px; padding: 0px;&quot;&gt;&lt;/blockquote&gt;&lt;font style=&quot;border-color: var(--border-color); font-size: 18px;&quot;&gt;&lt;span style=&quot;border-color: var(--border-color); background-color: initial;&quot;&gt;нового строкового массива, размером от 0 до 3, из ранее&lt;/span&gt;&lt;br style=&quot;border-color: var(--border-color);&quot;&gt;&lt;/font&gt;&lt;blockquote style=&quot;border: none; margin: 0px 0px 0px 40px; padding: 0px;&quot;&gt;&lt;/blockquote&gt;&lt;font style=&quot;border-color: var(--border-color); font-size: 18px;&quot;&gt;&lt;span style=&quot;border-color: var(--border-color); background-color: initial;&quot;&gt;заданного массива строк, длина которого должна быть&lt;/span&gt;&lt;br style=&quot;border-color: var(--border-color);&quot;&gt;&lt;/font&gt;&lt;blockquote style=&quot;border: none; margin: 0px 0px 0px 40px; padding: 0px;&quot;&gt;&lt;/blockquote&gt;&lt;font style=&quot;border-color: var(--border-color); font-size: 18px;&quot;&gt;&lt;span style=&quot;border-color: var(--border-color); background-color: initial;&quot;&gt;обязательно больше нуля. Все переменные, используемые&lt;/span&gt;&lt;br style=&quot;border-color: var(--border-color);&quot;&gt;&lt;/font&gt;&lt;blockquote style=&quot;border: none; margin: 0px 0px 0px 40px; padding: 0px;&quot;&gt;&lt;/blockquote&gt;&lt;font style=&quot;border-color: var(--border-color);&quot;&gt;&lt;span style=&quot;font-size: 18px; border-color: var(--border-color); background-color: initial;&quot;&gt;внутри функции, задаются непосредственно в теле этой функции,&lt;/span&gt;&lt;br style=&quot;border-color: var(--border-color);&quot;&gt;&lt;font style=&quot;font-size: 18px;&quot;&gt;и заранее не объявлены.&lt;/font&gt;&lt;/font&gt;" style="rounded=0;whiteSpace=wrap;html=1;" vertex="1" parent="1">
          <mxGeometry x="50" y="30" width="580" height="170" as="geometry" />
        </mxCell>
      </root>
    </mxGraphModel>
  </diagram>
</mxfile>
